P2
2 2
257
0   10
10 255
